<svg width="72" height="60" viewBox="0 0 72 60" fill="none" xmlns="http://www.w3.org/2000/svg">
<g clip-path="url(#clip0_10_243)">
<path d="M29.9139 2.65652C34.1817 0.85542 38.8786 0.118907 43.4974 0.43487C48.019 0.773952 52.4644 2.13909 56.3703 4.44331C59.871 6.50092 62.9456 9.27744 65.3439 12.5505C68.1438 16.3618 70.0124 20.8525 70.7186 25.527C71.2605 29.2327 71.1501 33.0506 70.2616 36.6945C70.8399 37.8229 71.129 39.1222 70.9338 40.3838C70.7108 42.2829 69.4903 44.02 67.7908 44.8998C67.4033 45.1651 66.8294 45.1695 66.5656 45.5912C63.4698 50.5385 58.8942 54.5613 53.5582 56.9538C52.4447 57.4723 51.2848 57.8829 50.1205 58.2705L49.8789 58.3233C44.2704 60.0407 38.1484 59.9802 32.5475 58.255C28.3549 56.9306 24.4491 54.6958 21.2243 51.709C18.1364 48.8697 15.6577 45.3743 14.0142 41.5178C13.2814 39.8257 12.7506 38.0554 12.318 36.2675C11.5454 35.7965 10.6141 35.662 9.72442 35.7646C7.88699 35.954 6.14877 36.6165 4.37071 37.0701C5.63768 36.1387 7.01942 35.3637 8.45194 34.7174C6.17625 34.7473 3.94471 35.2811 1.73744 35.7921C1.1459 35.9386 0.554239 36.0893 -0.0306854 36.2577C2.24169 33.8325 5.23143 32.1912 8.31387 31.0174C7.25979 30.883 6.19159 30.7584 5.18497 30.3986C4.24136 30.0838 3.36177 29.5961 2.57157 28.995C3.33307 28.9718 4.09789 29.0202 4.85719 28.9322C7.2013 28.9487 9.6624 28.8221 11.7527 27.6474C12.1366 22.5777 13.8848 17.6181 16.7542 13.4181C19.9768 8.66533 24.6032 4.86716 29.9139 2.65652Z" fill="black"/>
<path d="M38.0774 1.49296C41.8374 1.10764 45.6814 1.36195 49.3145 2.43535C56.9991 4.61957 63.6342 10.1726 67.1393 17.333C68.872 20.803 69.8808 24.6352 70.0584 28.5084C70.0331 29.3184 70.1799 30.1267 70.0728 30.9348C70.0485 32.5298 69.8333 34.1142 69.5386 35.6806C69.3266 35.4811 69.108 35.2888 68.8831 35.104C69.2065 33.0364 69.4417 30.9368 69.3069 28.8431C69.2781 28.2957 69.2606 27.7487 69.2065 27.2036C68.7674 22.8573 67.2961 18.6153 64.9145 14.9471C62.5184 11.2228 59.2241 8.07744 55.39 5.85248C51.417 3.54496 46.8657 2.20955 42.2657 2.10056C41.7127 2.01909 41.1521 2.07854 40.5959 2.05982L40.5219 2.11377C35.6935 2.18202 30.9147 3.66056 26.7982 6.15854C22.7633 8.62239 19.363 12.1145 17.0255 16.2187C15.2222 19.353 14.0568 22.8461 13.5922 26.4285C13.3747 26.6927 13.0524 26.8403 12.7656 27.0153C13.2898 21.6772 15.4187 16.5215 18.7407 12.3093C22.2083 7.89567 26.9947 4.52026 32.3341 2.76111C34.1993 2.1458 36.1273 1.72305 38.0774 1.49296Z" fill="#F9FCFA"/>
<path d="M39.3445 3.80044C39.915 3.5131 40.7095 3.47017 41.1842 3.95787C41.5086 4.24962 41.5604 4.7087 41.6687 5.10723C41.3586 5.13365 41.0474 5.15127 40.7374 5.14796C40.6314 4.952 40.627 4.64044 40.382 4.55897C40.1844 4.50833 39.9814 4.56448 39.7849 4.5865C39.7694 4.75163 39.7606 4.91677 39.7562 5.08301C40.3168 5.28888 40.9458 5.40558 41.3852 5.84264C41.8763 6.30503 41.8378 7.09549 41.544 7.65475C41.1059 8.47604 39.8774 8.58932 39.1933 8.02356C38.8278 7.67897 38.7585 7.16374 38.6834 6.69475C39.0168 6.69475 39.35 6.69475 39.6834 6.69145C39.7562 6.89292 39.7849 7.11971 39.9229 7.29365C40.0585 7.49732 40.3212 7.41805 40.5276 7.42906C40.6731 7.17365 40.755 6.87189 40.6588 6.58466C40.3377 6.28301 39.8599 6.28741 39.4812 6.09035C38.6071 5.70943 38.5144 4.27714 39.3445 3.80044Z" fill="#FCFDFC"/>
<path d="M43.7213 3.84762C44.2676 3.73753 44.9497 3.75405 45.3525 4.20102C45.6847 4.5379 45.7266 5.03992 45.7222 5.48689C45.4343 5.47918 45.1472 5.45496 44.8626 5.41973C44.7687 5.21496 44.7125 4.99698 44.6274 4.78891C44.4387 4.76139 44.2136 4.60726 44.0413 4.74817C43.8182 4.85056 43.7898 5.19735 44.0281 5.29863C44.496 5.54634 45.0281 5.7379 45.3548 6.17937C45.7698 6.69239 45.6472 7.46083 45.2963 7.97386C44.7325 8.76982 43.3595 8.7281 42.822 7.92993C42.5726 7.56102 42.5901 7.09434 42.5749 6.67049C42.9027 6.71012 43.2303 6.75526 43.5604 6.77287C43.6189 7.02498 43.5937 7.32443 43.79 7.52039C43.9027 7.58656 44.0328 7.61408 44.1575 7.65041C44.2215 7.61518 44.3473 7.54582 44.4102 7.51049C44.5459 7.27049 44.5746 6.99746 44.525 6.72883C44.0823 6.4492 43.5394 6.31269 43.1707 5.92957C42.652 5.28432 42.8783 4.10304 43.7213 3.84762ZM34.8714 4.53129C35.2777 4.21093 35.8371 4.13276 36.3314 4.26047C36.9097 4.46524 37.2971 5.02891 37.3776 5.6245C37.0532 5.70707 36.7274 5.78744 36.3975 5.83588C36.3468 5.67625 36.2971 5.51661 36.2475 5.35808C36.0732 5.31845 35.8999 5.27992 35.7256 5.24138C35.5524 5.36138 35.3305 5.45827 35.2842 5.68726C35.3857 6.29827 35.516 6.90487 35.6593 7.50597C35.7377 7.91331 36.3127 8.04443 36.5863 7.74927C36.7718 7.58854 36.7021 7.31562 36.7398 7.10194C37.0389 7.00836 37.3424 6.91478 37.6547 6.87294C37.8654 7.16138 37.8478 7.55771 37.7627 7.88909C37.5464 8.46927 36.9426 8.78524 36.3744 8.93056C35.6238 9.03515 34.7764 8.52652 34.6593 7.74817C34.5269 7.06781 34.3866 6.38854 34.2707 5.70597C34.1761 5.22597 34.5093 4.80212 34.8714 4.53129ZM50.3212 6.84872C50.5662 6.3368 51.0329 5.83038 51.6487 5.8568C52.5029 5.8623 53.4697 6.56359 53.3262 7.49937C53.2026 8.1434 52.8284 8.70047 52.5956 9.30707C52.3309 9.85753 52.1377 10.4454 51.8198 10.9695C51.5186 10.8913 51.246 10.7373 50.9634 10.6129C51.0341 10.1923 51.2669 9.82902 51.4257 9.44039C51.686 8.82498 51.983 8.22498 52.2291 7.60406C52.3307 7.39709 52.1992 7.19782 52.1331 7.00516C51.8704 6.96663 51.5061 6.87746 51.365 7.17911C50.9179 8.15782 50.4952 9.14755 50.0474 10.1252C49.6819 10.0888 49.3553 9.91048 49.044 9.73104C49.4624 8.76751 49.9006 7.81203 50.3212 6.84872Z" fill="#FBFDFA"/>
<path d="M26.8602 7.9079C27.1471 7.73604 27.4308 7.5556 27.7319 7.40918C28.4063 8.47267 28.9879 9.5934 29.6523 10.6636C30.1511 10.3828 30.6356 10.0789 31.1444 9.8203C31.3143 10.0999 31.4755 10.384 31.6246 10.6746C30.8232 11.1051 30.0486 11.5829 29.2529 12.0255C28.4527 10.6535 27.6736 9.27083 26.8602 7.9079Z" fill="#FAFDFA"/>
<path d="M54.6264 8.24815C55.3427 7.77255 56.4398 8.04888 56.8413 8.80741C56.9617 9.00778 57.019 9.23677 57.0964 9.45696C57.0743 9.76631 57.0324 10.0922 56.8381 10.3476C56.4198 10.9245 56.0313 11.5234 55.5932 12.0847C55.2722 12.4856 54.7048 12.5702 54.2269 12.4614C53.3352 12.2929 52.6763 11.2668 53.0382 10.4047C53.2678 9.99079 53.5745 9.62419 53.8316 9.22675C54.0835 8.89108 54.2831 8.50246 54.6264 8.24815Z" fill="#FBFDFA"/>
<path d="M54.868 9.35993C54.9872 9.16507 55.1947 9.06389 55.3979 8.97461C55.5658 9.04848 55.7334 9.12433 55.8989 9.20591C55.9883 9.45472 56.102 9.74966 55.9253 9.99087C55.6638 10.3916 55.3867 10.7824 55.1043 11.1677C54.8428 11.4859 54.367 11.5024 54.0535 11.2525C54.0095 11.1292 53.9653 11.0081 53.9211 10.8859C54.1298 10.3178 54.5369 9.85766 54.868 9.35993Z" fill="#010101"/>
<path d="M24.1827 9.92344C24.7301 9.35427 25.773 9.23097 26.3448 9.83097C27.1029 10.6512 27.8842 11.4526 28.6227 12.2937C28.3821 12.515 28.1492 12.7451 27.9086 12.9653C27.1195 12.2167 26.4419 11.3603 25.6572 10.6083C25.4928 10.4332 25.2378 10.507 25.0271 10.5004C24.8913 10.7085 24.7412 11.0026 24.9355 11.2259C25.6341 12.0153 26.3669 12.776 27.0964 13.5379C27.0931 13.605 27.0908 13.6733 27.0886 13.7416C26.8403 13.9398 26.6164 14.1655 26.3812 14.3791C25.7234 13.6524 25.0326 12.9555 24.3826 12.2223C24.2005 12.0373 24.0019 11.7787 23.7061 11.8623C23.4026 11.947 23.2161 12.3577 23.4721 12.5966C24.1972 13.4069 24.9499 14.1929 25.6993 14.9823C25.4774 15.2509 25.2104 15.4755 24.9444 15.7002C24.1928 14.9218 23.4666 14.1182 22.7195 13.3364C22.2848 12.9225 22.2085 12.2443 22.4459 11.7081C22.6378 11.1467 23.2172 10.8242 23.7911 10.7977C23.8736 10.4882 23.952 10.1614 24.1827 9.92344Z" fill="#FBFDFB"/>
<path d="M32.9731 11.519C36.8778 9.7311 41.3607 9.2544 45.5601 10.1483C49.616 10.994 53.3782 13.1363 56.2034 16.154C57.7474 17.8129 59.0189 19.7208 59.949 21.7861C60.5781 23.2592 61.0902 24.793 61.3462 26.3781C59.235 25.9652 57.1501 25.4049 55.1228 24.6838C54.1604 24.337 53.207 23.9538 52.3074 23.465C52.165 23.3913 52.0381 23.2944 51.9399 23.17C51.5326 22.6878 51.1254 22.2078 50.7171 21.7278C50.6143 21.5395 50.3936 21.6109 50.2227 21.6021C50.1861 21.4067 50.1556 21.2103 50.1311 21.0131C49.7305 20.6057 49.7392 20.0267 49.7205 19.4949C49.5549 17.8821 49.6345 16.2241 49.1576 14.6553C48.5319 13.2659 47.2494 12.1419 45.7231 11.8777C44.6448 11.7093 43.5291 11.7929 42.4807 12.0923C40.5316 12.6373 38.7503 13.6403 37.0607 14.7312C35.5345 15.7321 34.0842 16.845 32.6805 18.0088C30.9446 18.1046 29.3398 18.8389 27.8146 19.615C26.8147 20.1005 25.817 20.6378 24.7189 20.8668C24.1726 20.9361 23.623 20.978 23.0855 21.1078C25.1395 16.8992 28.6966 13.4466 32.9731 11.519Z" fill="white"/>
<path d="M58.1558 10.5687C58.3422 10.3816 58.5045 10.1118 58.8059 10.1306C59.2926 10.7218 60.0739 11.1104 60.2803 11.8953C60.351 12.3237 60.2571 12.8025 59.9492 13.1229C59.4989 13.6282 59.0374 14.1247 58.5597 14.6047C58.1778 15.0054 57.5532 15.0383 57.0542 14.8788C56.4264 14.5408 55.9451 13.9958 55.4264 13.517C56.3105 12.5106 57.2618 11.566 58.1558 10.5687Z" fill="#FBFDFB"/>
<path d="M58.7296 11.541C59.0123 11.7106 59.2438 11.9638 59.2606 12.3106C58.7595 12.8511 58.2596 13.3939 57.7486 13.9256C57.5907 13.9223 57.4319 13.9201 57.2752 13.9168C57.1416 13.7869 57.0069 13.657 56.8733 13.5292C57.5021 12.8758 58.1209 12.213 58.7296 11.541Z" fill="#010001"/>
<path d="M39.7439 15.1915C41.2813 14.3097 42.9168 13.4763 44.7026 13.2725C45.8349 13.1206 47.1106 13.4541 47.818 14.4009C48.3951 15.0308 48.4594 15.9214 48.5377 16.7294C48.6392 17.5407 48.594 18.3631 48.7197 19.1734C48.403 19.234 48.0895 19.3242 47.7673 19.3496C47.6017 19.2714 47.4373 19.1955 47.2915 19.0864C47.2352 18.8662 47.201 18.6417 47.1668 18.4171C45.8656 18.6582 44.4937 18.9268 43.4288 19.7634C42.8934 20.1707 42.5767 20.8006 42.4663 21.4544C42.4652 21.6515 42.4608 21.8496 42.4751 22.0489C42.6551 22.1984 42.9134 22.159 43.1306 22.2127C42.8271 22.7689 42.5556 23.3513 42.4728 23.9854V24.4258C42.9816 24.3465 43.4142 24.0559 43.89 23.8808C43.8691 23.9942 43.8281 24.221 43.8083 24.3344C43.7984 24.4885 43.7896 24.6427 43.7819 24.7968C43.8812 25.0407 44.0012 25.2757 44.1406 25.4992C44.826 25.3503 45.4185 24.9553 46.0731 24.7217L45.9979 25.1004C46.0244 25.1753 46.0764 25.3239 46.1016 25.3977C46.8066 25.2259 47.4733 24.9242 48.0672 24.5081C48.841 24.0127 49.5925 23.3621 50.534 23.2398C51.0594 23.57 51.3042 24.2526 51.8595 24.571C52.7623 25.1146 53.7424 25.5153 54.7246 25.8921C56.7419 26.6396 58.8179 27.2295 60.9237 27.6709C62.0185 27.9098 63.1341 28.0728 64.1958 28.4405C64.7896 28.6552 65.3878 29.0174 65.6505 29.6174C66.1448 30.7964 66.1383 32.1913 65.5557 33.3374C65.0338 34.2974 64.1021 35.0812 63.0117 35.2902C58.6456 36.2975 54.2091 36.9748 49.7705 37.5636C48.4516 37.7089 47.1361 37.8674 45.8138 37.9787C42.7657 38.2508 39.7051 38.4036 36.6426 38.3664C35.6394 38.3807 34.6273 38.3575 33.6473 38.1254C33.2633 37.9802 32.8691 37.817 32.5921 37.5024C32.2126 37.1345 32.1066 36.5996 32.0094 36.1031C31.8472 35.1915 31.6299 34.2843 31.5988 33.3551C31.5646 32.5469 31.8396 31.7752 31.9928 30.9913C32.4685 28.6266 32.8414 26.2387 33.4474 23.9003C33.5279 23.6141 33.4826 23.3113 33.5622 23.0253C33.8813 21.6954 34.2575 20.3808 34.6018 19.0575C34.6427 18.9441 34.6581 18.8075 34.7541 18.7272C36.3426 17.4484 37.9847 16.2275 39.7439 15.1915Z" fill="white"/>
<path d="M58.0443 16.1219C59.3322 15.1927 60.6157 14.2579 61.9058 13.332C62.366 13.9938 62.8527 14.6367 63.3206 15.2929C63.0547 15.48 62.804 15.6914 62.5161 15.8433C62.2004 15.4866 61.9367 15.087 61.6608 14.6994C61.4555 14.8426 61.248 14.9823 61.0405 15.121C61.0526 15.4425 61.3188 15.6616 61.4708 15.9259C61.2269 16.1074 60.9797 16.287 60.7259 16.4554C60.5571 16.221 60.3948 15.9821 60.205 15.7652C59.9853 15.8929 59.78 16.0415 59.5726 16.1856L59.427 16.3663C59.7073 16.7439 59.9877 17.1214 60.2515 17.5123C59.99 17.7105 59.7217 17.8988 59.4447 18.0748C58.9868 17.4177 58.4692 16.8011 58.0443 16.1219Z" fill="#FBFDFB"/>
<path d="M20.4071 13.8561C20.5109 13.7161 20.5959 13.5555 20.7405 13.4531C21.0285 13.5808 21.258 13.8076 21.5131 13.9904C21.3122 14.2689 21.1058 14.5419 20.9204 14.8326C21.939 15.5602 22.9445 16.3056 23.9654 17.0288C23.8142 17.3151 23.6144 17.5704 23.4191 17.827C22.3805 17.0938 21.363 16.3319 20.3234 15.6009C20.1468 15.8618 19.979 16.1304 19.776 16.3715C19.4526 16.355 19.2275 16.038 18.9571 15.8849C19.3974 15.1794 19.937 14.5419 20.4071 13.8561Z" fill="#FCFDFA"/>
<path d="M17.8203 17.9846C17.9936 17.6487 18.168 17.3129 18.3788 16.9993C19.7419 17.7391 21.1402 18.4237 22.481 19.2022C22.4975 19.5743 22.1819 19.9068 22.0064 20.2273C21.4425 19.9586 20.926 19.5886 20.3366 19.3796C20.2494 19.571 20.16 19.7637 20.0729 19.9575C20.6047 20.2746 21.194 20.4948 21.6984 20.8603C21.5362 21.1883 21.3585 21.5088 21.1863 21.8312C19.788 21.1299 18.4173 20.3725 17.0333 19.647C16.9815 19.4378 17.1625 19.2451 17.2364 19.0569C17.3346 18.9193 17.3744 18.7014 17.5476 18.6408C18.1083 18.8908 18.6269 19.2276 19.1875 19.4808C19.2913 19.2882 19.3972 19.0966 19.5098 18.9084C18.9492 18.5956 18.3755 18.3061 17.8203 17.9846Z" fill="#FCFEFB"/>
<path d="M59.9371 18.5085C60.0618 18.1694 60.4833 18.1484 60.7516 18.3258C60.8687 18.5658 60.8784 18.8201 60.7449 19.0557C60.6102 19.1085 60.4767 19.1614 60.343 19.2164C60.097 19.0788 59.7341 18.8311 59.9371 18.5085Z" fill="#F6FCF8"/>
<path d="M43.6573 20.7226C44.6706 19.8529 45.9463 19.4125 47.201 19.0205L47.2915 19.0867C47.437 19.1957 47.6017 19.2716 47.7673 19.3498C46.3733 19.8992 45.0301 20.5685 43.655 21.1608C43.6529 21.0133 43.6541 20.869 43.6573 20.7226Z" fill="#F8FBF9"/>
<path d="M61.1069 20.0124C61.2912 19.5787 61.7094 19.3145 62.1254 19.1328C62.2678 19.4598 62.4177 19.7835 62.558 20.1126C62.2722 20.2657 62.005 20.4912 62.0669 20.848C62.2325 20.8899 62.4057 21.0352 62.5812 20.946C63.6263 20.5266 64.6252 20.0014 65.6581 19.5545C65.8072 19.9001 65.976 20.2358 66.1151 20.586C65.3635 20.9482 64.5987 21.284 63.8471 21.6462C63.3285 21.8543 62.7898 22.1636 62.2116 22.0546C61.3243 21.9071 60.7185 20.8337 61.1069 20.0124Z" fill="#FCFDFB"/>
<path d="M25.613 22.3056C28.253 21.775 30.384 19.7878 33.0957 19.5093C32.7821 20.7874 32.4026 22.0491 32.0947 23.3295C32.002 23.7302 32.0174 24.1496 31.8927 24.5438C31.1875 27.2751 30.8332 30.0814 30.1766 32.8238C29.9989 33.6471 30.0982 34.4983 30.2549 35.3171C30.3333 35.8644 30.4492 36.4103 30.6633 36.9234C29.7594 36.9621 28.8721 37.2693 28.1029 37.7372C27.2255 38.2524 26.5666 39.1571 25.5082 39.3267C24.1827 39.4224 23.0438 38.5725 21.747 38.4747C21.2768 38.4724 20.8388 38.7069 20.3652 38.6881C20.4513 38.6243 20.5375 38.5626 20.6247 38.501C21.2879 38.1544 21.9478 37.7535 22.7039 37.6456C23.6264 37.541 24.5547 37.476 25.4706 37.3241C25.9716 37.2338 26.4331 36.9982 26.8149 36.6646C27.3182 36.2419 28.1448 36.1505 28.3744 35.4547C28.4228 34.9593 28.3192 34.1601 27.6978 34.0942C27.1681 34.17 26.7321 34.5234 26.3238 34.844C25.644 35.3779 25.0304 35.9999 24.2964 36.4634C23.9665 36.6904 23.5493 36.6241 23.1719 36.6296C22.6134 36.6208 22.0827 36.4107 21.5285 36.3687C20.6909 36.457 19.8907 36.7422 19.0972 37.0106C18.4891 37.1977 17.8678 37.4027 17.2234 37.3707C16.3482 37.3453 15.5139 37.0272 14.7402 36.6386C15.2722 36.6209 15.8096 36.6684 16.3383 36.5813C18.1272 36.3248 19.7463 35.4595 21.4889 35.0312C22.0451 34.8683 22.6444 35.0356 23.1918 34.823C24.014 34.539 24.7888 33.853 24.9013 32.9547C24.9576 32.6068 24.8197 32.2831 24.6574 31.987C24.163 31.539 23.4754 31.8099 22.9677 32.0852C21.502 32.9131 20.2981 34.1241 18.8434 34.9682C18.4495 35.1917 17.9992 35.3238 17.5434 35.3053C16.5689 35.2789 15.6353 34.9693 14.6772 34.8209C13.7932 34.6569 12.8915 34.6888 11.9977 34.7241C13.6807 33.9116 15.5999 33.9964 17.4022 33.6671C18.0621 33.5406 18.7817 33.4536 19.3214 33.0209C19.5355 32.8668 19.5432 32.5828 19.5796 32.3472C19.3534 31.7142 18.8292 31.1109 18.1097 31.0965C16.9939 31.1309 16.0669 31.8353 15.1696 32.4176C14.5494 32.8173 13.9224 33.3942 13.1267 33.3007C12.3111 33.1906 11.5144 32.9221 10.6833 32.9329L10.6115 32.8855C9.81139 32.8712 9.01247 32.9561 8.22668 33.1024C8.88886 32.6896 9.55766 32.2593 10.3169 32.0477C11.2141 31.7869 12.1643 31.8914 13.0759 31.7263C14.5957 31.2971 15.5757 29.9441 16.9342 29.223C17.3405 29.0259 17.8017 28.8619 18.2575 28.9621C19.4042 29.147 20.0851 30.2631 21.1832 30.5639C22.1632 30.8039 23.1885 30.4329 23.9809 29.8593C24.4113 29.561 24.7635 29.1327 24.8804 28.6142C24.6828 28.0659 23.9964 27.9591 23.4876 28.0064C22.6346 28.0823 22.1334 28.8619 21.4139 29.2218C20.3411 29.1042 19.5577 28.2893 18.5732 27.9438C17.9397 27.7842 17.2047 27.8613 16.6914 28.2948C15.8737 28.951 15.0161 29.6093 13.9908 29.9055C12.8 30.2908 11.5144 30.0994 10.3512 29.7097C11.5674 29.5864 12.8012 29.3275 13.8552 28.6813C15.1476 27.913 16.1088 26.5477 17.6583 26.255C18.5203 26.0315 19.3721 26.4169 20.1127 26.8242C20.5806 27.0575 21.0895 27.3339 21.6302 27.2313C22.4459 27.0464 23.0373 26.4178 23.7249 25.9906C24.0504 25.7803 24.4907 25.7616 24.738 25.4346C24.9455 25.2627 24.876 24.98 24.8936 24.7453C24.6817 24.5107 24.3937 24.3258 24.0636 24.3899C22.9908 24.4823 22.3563 25.525 21.3575 25.8089C20.9778 25.8904 20.6169 25.7165 20.2627 25.6064C19.6744 25.4027 19.0586 25.2519 18.4306 25.2805C17.8556 25.2519 17.3093 25.45 16.7508 25.5481C17.0136 25.316 17.2728 25.0671 17.6029 24.9315C18.3865 24.577 19.2738 24.7289 20.096 24.5473C20.8454 24.3634 21.4192 23.8218 22.0605 23.4289C22.7304 22.9741 23.4864 22.6418 24.2842 22.4887C24.7201 22.3826 25.1748 22.4069 25.613 22.3056Z" fill="white"/>
<path d="M44.388 22.266C45.3161 21.6077 46.209 20.858 47.2738 20.4253C47.0333 20.6972 46.7618 20.9384 46.4749 21.1573C45.3801 22.003 44.27 22.8274 43.1331 23.6156C43.3605 23.0245 43.9301 22.669 44.388 22.266Z" fill="#EEFAF9"/>
<path d="M48.2243 21.4811C48.5398 21.371 48.8808 21.3401 49.2087 21.4172C49.234 22.0128 48.6613 22.3607 48.2806 22.7273C47.091 23.6741 45.7058 24.3366 44.3031 24.9047C44.3859 24.3223 44.5846 23.7674 44.793 23.2214C45.8966 22.5699 47.0002 21.8872 48.2243 21.4811Z" fill="#FDFDFC"/>
<path d="M64.5304 22.9893C64.772 22.5421 65.3007 22.3673 65.7764 22.3145C66.6969 22.3274 67.2178 23.411 67.0059 24.2112C66.8624 24.7584 66.3293 25.0358 65.8439 25.2285C65.7599 24.9301 65.6838 24.6296 65.6067 24.3301C65.7733 24.1902 66.0868 24.1298 66.0857 23.8666C66.0912 23.7081 66.0581 23.5529 66.0416 23.3964C65.886 23.3491 65.7293 23.3064 65.5726 23.272L65.4235 23.5298C65.4003 24.1792 65.3584 24.9247 64.8365 25.3893C64.4545 25.7768 63.8596 25.7669 63.3597 25.6932C62.49 25.462 62.0894 24.382 62.4041 23.5894C62.628 23.106 63.1423 22.8781 63.6157 22.7055C63.7141 23.0259 63.7956 23.3504 63.8729 23.6763C63.6246 23.8304 63.1898 23.9484 63.2592 24.3249C63.2183 24.5231 63.4159 24.6156 63.5294 24.7389C63.7801 24.7125 64.1056 24.751 64.2568 24.4979C64.3868 24.0033 64.3074 23.4604 64.5304 22.9893Z" fill="#FBFEFB"/>
<path d="M37.0511 27.8409C37.347 26.8701 38.3038 26.302 39.2695 26.1829C40.0398 26.1367 40.8765 26.2567 41.4856 26.7675C41.9039 27.0879 42.0638 27.6119 42.2085 28.0955C42.4448 28.0955 42.682 28.101 42.9191 28.1175C42.9589 27.4955 43.493 27.0254 44.0471 26.8226C44.3903 26.6828 44.7169 26.8776 45.0171 27.024C45.2723 26.9007 45.4983 26.6662 45.8062 26.7094C46.0701 26.6796 46.3349 26.9327 46.5855 26.7843C46.9573 26.5784 47.4385 26.5145 47.8106 26.7556C48.2001 26.9371 48.3325 27.3788 48.4341 27.7608C49.2155 27.4889 50.1523 27.4316 50.8421 27.9644C51.0441 27.8753 51.2439 27.7806 51.4436 27.6848C51.5883 27.0188 52.3221 26.5817 52.9775 26.7534C53.7025 26.9087 54.1715 27.8213 53.7004 28.4544C53.8131 28.8397 53.844 29.2514 53.696 29.6334C53.9874 29.9219 54.3042 30.2709 54.2358 30.7156C54.2898 31.3178 53.8428 31.7967 53.3817 32.1138C53.6774 32.563 53.4952 33.1013 53.6663 33.5824C53.7779 34.0448 53.6917 34.5788 53.3188 34.9058C52.8066 35.452 51.9944 35.3714 51.3179 35.495C51.1943 35.4157 51.0708 35.3364 50.9472 35.2605C50.2585 35.5839 49.4076 35.6435 48.7741 35.1623C48.5253 35.3967 48.2242 35.5689 47.8956 35.6645C47.559 36.1256 47.1155 36.5871 46.5282 36.6894C45.9608 36.7095 45.5657 36.1996 45.4642 35.6867C44.8947 35.8651 44.3077 35.7847 43.7536 35.5941C43.269 35.9818 42.596 36.0278 42.021 35.8351C41.7749 36.314 41.4283 36.7533 40.9337 36.9944C39.8786 37.5205 38.4286 37.3445 37.6714 36.39C37.0391 35.6116 37.1427 34.394 37.8877 33.7236C37.7773 33.4825 37.6922 33.2314 37.6461 32.9716C37.497 32.9276 37.3493 32.8824 37.2023 32.8395C37.061 32.9133 36.9197 32.9871 36.7796 33.062C36.0324 33.0643 35.2765 32.9883 34.5448 33.1821C34.3384 33.0345 34.0922 32.9223 33.9565 32.6999C33.8285 32.472 33.855 32.2045 33.8485 31.9545C32.8927 31.6749 32.5825 30.3428 33.2459 29.636C33.6566 29.1944 34.2931 29.1217 34.8637 29.148C35.2247 28.973 35.6518 28.7385 36.0381 29.006C36.5227 29.2175 36.4543 29.8174 36.7026 30.2007C37.0713 30.4461 37.484 30.1006 37.8814 30.0995C37.0808 29.6818 36.858 28.6612 37.0511 27.8409Z" fill="#010102"/>
<path d="M38.8588 27.0142C39.5055 26.8226 40.2483 26.837 40.8386 27.187C41.4621 27.5327 41.664 28.4498 41.237 29.0223C41.0593 29.2579 40.7635 29.3493 40.504 29.4603C40.8208 30.2937 41.3097 31.2383 42.2302 31.5072C42.7621 31.6514 43.1795 31.1274 43.6957 31.1769C43.9837 31.1844 43.9617 31.5434 43.986 31.7481C43.5082 32.4813 42.4708 32.609 41.7248 32.2424C40.9765 31.8603 40.4943 31.1106 40.1917 30.3521C40.0714 30.0493 39.9743 29.7398 39.8718 29.4317C39.8242 29.4385 39.7271 29.4504 39.6797 29.457C39.6909 29.6398 39.703 29.8236 39.7162 30.0075C39.8333 30.0602 39.9501 30.1132 40.0681 30.1669C40.0382 30.3023 40.0063 30.4391 39.9722 30.5742C39.7582 30.9477 39.4335 31.248 39.0561 31.4528C38.948 31.3503 38.8122 31.272 38.7414 31.1388C38.8309 30.888 39.0295 30.6766 39.0382 30.399C39.0538 29.9212 38.9863 29.4445 38.9952 28.9667C39.0072 28.6826 38.8043 28.4625 38.6541 28.2456C38.888 27.9307 39.2864 27.9858 39.6318 27.9935C39.6662 28.0529 39.7014 28.1124 39.7378 28.1729C39.6902 28.425 39.6694 28.6802 39.6605 28.9367C39.9752 28.9356 40.3591 28.9764 40.5643 28.6802C40.8866 28.3213 40.5875 27.7645 40.1714 27.6401C39.5312 27.423 38.6075 27.5817 38.3515 28.2885C38.4586 28.6882 38.8537 28.9755 38.8273 29.4104C38.6573 29.4741 38.4774 29.6228 38.291 29.5216C37.769 29.2529 37.5912 28.5745 37.7601 28.043C37.8921 27.5249 38.3611 27.1572 38.8588 27.0142Z" fill="#F9FCFA"/>
<path d="M46.9903 27.3654C47.1603 27.3035 47.3435 27.3445 47.5201 27.3489C47.6692 27.6153 47.7673 28.0238 47.4881 28.2395C47.2673 28.3244 46.9419 28.3111 46.8414 28.059C46.6803 27.83 46.8259 27.546 46.9903 27.3654Z" fill="#F4FAF9"/>
<path d="M43.6474 28.0469C43.7898 27.7442 44.1076 27.5834 44.4 27.4546C44.7974 28.3585 44.5688 29.3812 44.7487 30.3291C44.847 30.4447 44.9606 30.5482 45.0699 30.6561C45.0731 30.7155 45.0787 30.8355 45.0819 30.895C44.6968 31.0766 44.2609 31.0293 43.8491 31.0007C43.8458 30.9336 43.8403 30.7981 43.8371 30.7309C43.9155 30.6109 43.9949 30.4909 44.0555 30.3613C44.04 29.7095 43.9507 29.0609 43.9627 28.4082C43.8571 28.2902 43.5823 28.2582 43.6474 28.0469ZM45.1628 27.8531C45.3911 27.6572 45.6242 27.448 45.9286 27.3853C46.1649 27.9104 46.1217 28.5005 46.1781 29.062C46.2201 29.5574 46.0744 30.1483 46.4772 30.5317H46.8791C46.9319 30.4689 47.0369 30.3445 47.0886 30.2829C47.0918 29.9503 47.0918 29.6179 47.0765 29.2863C46.9783 29.2621 46.7818 29.215 46.6836 29.1908C46.7763 28.7933 47.1317 28.5599 47.4848 28.4144C47.7255 28.9737 47.6116 29.5979 47.7276 30.1836C47.8456 30.3058 47.9648 30.428 48.0851 30.5502C48.0807 30.6041 48.0731 30.7098 48.0696 30.7627C47.7132 30.8289 47.3511 30.8584 46.9892 30.8628C46.8765 30.7781 46.7641 30.6966 46.6525 30.6129C46.3822 31.1105 45.7244 30.9586 45.2729 30.8606C45.369 30.5953 45.5908 30.3608 45.5545 30.0612C45.5324 29.5846 45.4993 29.108 45.4761 28.6313C45.4596 28.5168 45.4452 28.4034 45.433 28.2898C45.1992 28.2494 45.1704 28.0491 45.1628 27.8531Z" fill="#F8FCF9"/>
<path d="M52.2349 27.6781C52.4623 27.2466 53.2778 27.4491 53.1586 27.9721C53.0085 28.2297 52.7039 28.1042 52.4665 28.1185C52.7224 28.4642 53.2147 28.7812 53.0482 29.2778C52.8507 29.7399 52.2724 29.7776 51.8507 29.9163C51.8286 29.9636 51.7844 30.0583 51.7623 30.1066C52.2182 30.34 52.7224 29.9745 53.1806 30.1969C53.4036 30.274 53.4864 30.5129 53.5789 30.7077C53.4221 31.4696 52.5647 31.7657 51.8716 31.7129C51.5769 31.6611 51.1873 31.6193 51.0339 31.3276C50.896 31.0611 51.1487 30.7342 51.4345 30.7859C51.6839 30.9599 51.8991 31.1825 52.1751 31.3189C52.4278 31.2232 52.8847 31.1812 52.8019 30.8046C52.6652 30.6153 52.4101 30.6395 52.2071 30.656C51.9012 30.6802 51.5945 30.6802 51.2877 30.6736C51.2083 30.5943 51.1298 30.5151 51.0515 30.4369C51.0503 30.3356 51.0503 30.2354 51.0503 30.1365C51.1716 30.0247 51.2945 29.9146 51.419 29.8062C51.2787 29.6466 51.0647 29.5233 51.0272 29.2996C50.9467 29.0508 51.0891 28.8198 51.1827 28.6005C51.5194 28.4177 51.888 28.3153 52.2664 28.2636C52.2127 28.0755 52.0571 27.8454 52.2349 27.6781Z" fill="#F6FAF7"/>
<path d="M49.2848 28.5886C49.5518 28.4213 49.9049 28.1967 50.2128 28.4037C50.5462 28.6294 50.4999 29.0686 50.5329 29.4176C50.5185 29.7149 50.8396 29.8603 50.8606 30.1486C50.5836 30.4426 50.3077 30.9393 49.8265 30.7618C49.9137 30.185 50.0704 29.5563 49.7967 29.0059C49.6279 29.049 49.4623 29.094 49.2945 29.1369C49.2504 29.369 49.1677 29.6015 49.2006 29.8413C49.2294 30.1616 49.5284 30.3444 49.6752 30.6097C49.2913 30.7969 48.8631 30.798 48.4468 30.7748L48.2736 30.5624C48.3796 30.4523 48.4867 30.3444 48.5992 30.2408C48.6291 30.1506 48.6611 30.0625 48.6919 29.9731C48.6434 29.7353 48.6212 29.4942 48.6079 29.2531L48.2791 29.1915C48.2813 29.022 48.3232 28.86 48.3851 28.7049C48.5738 28.5783 48.7613 28.4495 48.9544 28.327C49.0736 28.4616 49.1552 28.6188 49.2348 28.7806C49.2472 28.733 49.2727 28.6372 49.2848 28.5886Z" fill="#F8FBF9"/>
<path d="M51.6256 29.0423C51.7094 28.7296 52.0737 28.7508 52.3274 28.7913C52.4097 28.9157 52.4757 29.05 52.5238 29.1911C52.3461 29.2979 52.1563 29.3794 51.9653 29.4576C51.8319 29.3484 51.5185 29.2823 51.6256 29.0423Z" fill="#030207"/>
<path d="M41.9831 28.9011C42.4677 28.6635 43.1299 28.8253 43.3835 29.3183C43.612 29.8151 43.6242 30.4776 43.2104 30.8816C42.9069 31.2163 42.3882 31.1789 41.9888 31.082C41.1478 30.7144 41.1366 29.2711 41.9831 28.9011Z" fill="#F8FBF6"/>
<path d="M39.6799 29.4572C39.7274 29.4504 39.8245 29.4385 39.8719 29.4319C39.9746 29.7401 40.0717 30.0495 40.1918 30.3522C40.1179 30.426 40.0439 30.4998 39.9723 30.5746C40.0066 30.4393 40.0385 30.3027 40.0682 30.1673C39.9502 30.1136 39.8332 30.0605 39.7163 30.0079C39.7032 29.8238 39.6909 29.64 39.6799 29.4572Z" fill="#152028"/>
<path d="M42.1189 29.4738C42.3552 29.2098 42.8474 29.3802 42.8891 29.7259C42.9244 30.011 42.9796 30.404 42.6684 30.5648C42.451 30.5946 42.1586 30.6209 42.057 30.3754C41.9236 30.1035 41.8972 29.7038 42.1189 29.4738Z" fill="#020103"/>
<path d="M35.2046 29.8867C35.3635 29.7097 35.5601 29.5961 35.804 29.6445C35.8028 29.8449 35.8339 30.0827 35.6385 30.2082C35.4652 30.25 35.2874 30.2533 35.1119 30.269C35.1372 30.6893 35.1318 31.1109 35.1682 31.5306C35.2434 31.6242 35.3194 31.7189 35.3957 31.8145C35.187 32.0965 34.973 32.4675 34.5635 32.4356C34.6364 31.9884 34.8826 31.4855 34.5791 31.0704C34.4003 31.349 33.9302 31.3082 33.7537 31.0497C33.501 30.7624 33.5538 30.256 33.8784 30.0413C34.2621 29.7633 34.7665 29.9341 35.2046 29.8867Z" fill="#F2FAF9"/>
<path d="M34.0006 30.7539C34.047 30.5758 34.0171 30.3367 34.228 30.2608C34.3704 30.231 34.5151 30.2168 34.6619 30.2168C34.6718 30.4315 34.6861 30.6473 34.7059 30.8641C34.4841 30.7562 34.2379 30.7706 34.0006 30.7539Z" fill="#030408"/>
<path d="M35.6385 30.208C35.7189 30.2378 35.8801 30.2963 35.9618 30.3249C36.0027 30.5539 36.005 30.7884 36.0226 31.0218C36.271 30.8961 36.526 30.8511 36.7708 31.0119C36.7961 31.2244 36.8183 31.4366 36.8348 31.6504C36.902 31.7449 36.9704 31.8408 37.0391 31.9376C36.9158 32.0823 36.7878 32.2229 36.6551 32.3592L36.3384 32.2976C36.4543 31.9772 36.5435 31.604 36.3285 31.3012C36.2257 31.3376 36.1286 31.3869 36.0317 31.4355C36.034 31.5886 36.0404 31.7438 36.0516 31.8979C36.1299 32.0256 36.2116 32.1522 36.2976 32.2764C36.0349 32.3127 35.7701 32.3359 35.5052 32.3415C35.4995 32.2995 35.4886 32.215 35.4831 32.1718C35.5515 32.0675 35.6199 31.9649 35.685 31.8605C35.6046 31.5225 35.6099 31.1735 35.609 30.8289C35.2158 30.7377 35.5645 30.4206 35.6385 30.208Z" fill="#F2F9F8"/>
<path d="M37.4726 30.8774C37.8104 30.8105 38.2739 30.84 38.3532 31.2572C38.4856 31.7328 37.8499 31.6734 37.5519 31.6866C37.5675 31.7348 37.5995 31.8317 37.6159 31.8804C37.871 31.8749 38.1058 31.7626 38.3576 31.7339C38.4427 32.3351 37.3975 32.4264 37.2341 31.8925C37.0344 31.5335 37.1935 31.1361 37.4726 30.8774Z" fill="#F1FBF9"/>
<path d="M37.4064 31.2705C37.6139 31.2077 37.8234 31.1505 38.0366 31.103C38.0753 31.4918 37.5918 31.5314 37.4064 31.2705Z" fill="#61A6C3"/>
<path d="M39.7428 31.8925C39.9734 31.9266 40.1819 31.6316 40.3993 31.7987C40.6952 32.0464 40.8751 32.4416 40.8607 32.8283C40.7636 32.9085 40.652 32.9659 40.5429 33.0264C40.2647 32.795 39.9854 32.553 39.6391 32.4342C39.5042 32.4822 39.3696 32.531 39.2352 32.5806C39.2175 32.7457 39.0332 32.967 39.2573 33.0659C39.831 33.3975 40.532 33.4712 41.0574 33.9017C41.3685 34.3167 41.4768 34.8342 41.4271 35.3448C41.096 36.6141 39.3138 36.9587 38.3954 36.1177C37.8216 35.6454 37.816 34.5588 38.5069 34.1898C38.8689 33.9665 39.3975 33.9696 39.6725 34.3274C39.6217 34.4476 39.5721 34.5685 39.5225 34.6896C39.2765 34.7735 38.9751 34.7865 38.8051 35.0067C38.72 35.3171 38.8459 35.6873 39.1594 35.815C39.5743 35.9975 40.1371 35.9557 40.465 35.6223C40.8357 35.2006 40.7244 34.4619 40.2222 34.1922C39.7288 33.9313 39.1539 33.841 38.6882 33.5239C38.3228 33.2718 38.26 32.7302 38.5239 32.3836C38.7794 31.9784 39.286 31.8308 39.7428 31.8925Z" fill="#F8FCF9"/>
<path d="M51.2856 32.4452C51.5868 32.1768 52.0394 32.4452 52.3473 32.1898C52.4036 32.1898 52.5173 32.1887 52.5736 32.1887C52.7236 32.4245 52.8395 32.6808 52.9335 32.9462C52.6134 33.2335 52.2877 32.9396 52.0053 32.7623C51.9545 32.7691 51.8509 32.7799 51.8001 32.7865C51.7989 32.8724 51.7978 32.9594 51.7989 33.0474C52.162 33.2126 52.6058 33.2544 52.8937 33.5541C53.1134 33.7875 52.9566 34.1045 52.8926 34.371C52.6024 34.6198 52.2316 34.688 51.8597 34.6219C51.7262 34.6869 51.5849 34.8145 51.427 34.7475C51.1643 34.5273 50.9944 34.2025 51.0055 33.8568C51.4061 33.6466 51.7153 34.0363 52.0716 34.1573C52.3343 34.263 52.2759 33.9383 52.3067 33.7973C51.9325 33.6773 51.5529 33.5659 51.202 33.3866L51.0432 33.1314C51.0385 32.8822 51.0881 32.6159 51.2856 32.4452Z" fill="#F7FAF9"/>
<path d="M46.9119 32.8161C47.2178 32.6355 47.5941 32.4396 47.9439 32.6355C48.6182 33.014 48.6999 34.0348 48.265 34.6247C48.0499 34.9626 47.5409 35.0628 47.2199 34.8196C47.0311 34.7227 47.0156 34.4143 47.1845 34.2923C47.3425 34.2692 47.5036 34.2593 47.6657 34.2615C47.9229 34.0149 47.9891 33.6714 47.8212 33.3532L47.5741 33.1815C47.3378 33.1837 47.0379 33.242 46.9836 33.5161C46.9427 33.8838 46.9703 34.256 46.9848 34.6258C46.9792 34.8383 47.1967 34.9429 47.2949 35.1092C47.3458 35.2818 47.179 35.3998 47.0918 35.5242C46.8787 35.7281 46.6516 36.0273 46.317 35.9384C46.1823 35.6356 46.3722 35.3208 46.3633 35.0114C46.3435 34.5147 46.2782 34.0217 46.2917 33.5252C46.1845 33.4732 46.0777 33.4226 45.9726 33.3719C45.9627 33.3103 45.9427 33.187 45.934 33.1253C46.1503 32.8921 46.3865 32.6299 46.7264 32.6037C46.7729 32.6564 46.8656 32.7631 46.9119 32.8161Z" fill="#F8FCF9"/>
<path d="M49.1127 32.6961C49.5653 32.2401 50.4646 32.3271 50.7482 32.9317C50.8597 33.1662 50.9293 33.5724 50.6334 33.6968C50.2671 33.8872 49.8488 33.8312 49.4537 33.8345C49.4638 33.8906 49.4857 34.0051 49.4969 34.0612C49.9328 34.3827 50.3402 33.9269 50.796 33.9423C50.8048 34.08 50.8335 34.2199 50.8159 34.3596C50.6527 34.6505 50.2972 34.7197 50.0081 34.8231C49.4596 34.8308 48.9068 34.4798 48.8206 33.9148C48.6933 33.493 48.8081 33.0153 49.1127 32.6961Z" fill="#F8FBF9"/>
<path d="M43.8991 33.1069C44.1773 32.6852 44.7556 32.6599 45.1959 32.7878C45.7433 32.9893 45.8504 33.6421 45.8337 34.1527C45.7377 34.4511 45.6141 34.7881 45.3095 34.9346C45.0148 35.1063 44.6661 35.0403 44.3426 35.0522C43.6375 34.7054 43.4156 33.7212 43.8991 33.1069Z" fill="#F9FDF8"/>
<path d="M41.9809 33.0614C42.1852 32.8809 42.4621 32.8371 42.7147 32.7644C42.9476 32.8457 43.2147 32.8921 43.3934 33.076C43.527 33.2554 43.4917 33.5337 43.2819 33.6427C42.9807 33.5216 42.6826 33.36 42.3471 33.4115C42.1584 33.7451 42.0744 34.2416 42.4255 34.5012C42.8006 34.6851 43.1539 34.3074 43.5411 34.3669C43.5487 34.5629 43.6415 34.8304 43.4251 34.9526C43.1317 35.2322 42.6934 35.2485 42.3183 35.1716C41.4877 34.8714 41.3143 33.6098 41.9809 33.0614Z" fill="#F7FCF8"/>
<path d="M49.5354 32.9967C49.8168 32.9328 50.2296 32.8648 50.2504 33.2697C49.9537 33.3545 49.6466 33.3961 49.3387 33.4117C49.4019 33.2719 49.468 33.1343 49.5354 32.9967Z" fill="#03080A"/>
<path d="M44.4575 33.3117C44.6451 33.2258 44.8526 33.2874 45.048 33.3128C45.1927 33.5903 45.3075 33.9117 45.1805 34.221C45.0657 34.603 44.4387 34.6118 44.3086 34.2309C44.2632 33.9249 44.1971 33.5427 44.4575 33.3117Z" fill="#040304"/>
<path d="M64.1341 36.513C64.9144 36.3346 65.4805 35.7258 66.0831 35.2612C67.1756 35.3746 68.2143 35.8899 68.9789 36.6737C69.6478 37.4179 70.109 38.3933 70.0661 39.4095C70.1289 40.7593 69.414 42.0574 68.3732 42.8862C66.6141 44.3273 63.8327 44.357 62.0968 42.861C61.0692 42.0055 60.4854 40.6293 60.6533 39.2984C60.7384 38.4892 61.0804 37.7241 61.5738 37.0812C62.4312 36.9126 63.28 36.6989 64.1341 36.513Z" fill="white"/>
<path d="M13.6067 37.4443C13.9278 37.7647 14.2424 38.0917 14.569 38.4065C14.8063 38.6091 14.8438 38.9361 14.953 39.2122C16.5269 43.6511 19.2439 47.6782 22.7767 50.8026C25.9243 53.599 29.7064 55.6885 33.7678 56.8247C38.3954 58.1315 43.3639 58.2195 48.0322 57.0611C54.6496 55.4637 60.5928 51.3245 64.4279 45.7206C64.7523 45.6832 65.0781 45.6479 65.4056 45.6336C61.5042 51.6084 55.2998 56.056 48.3534 57.7638C46.6836 58.1984 44.9708 58.4573 43.2514 58.5706C40.8962 58.7271 38.5233 58.587 36.2013 58.1678C31.628 57.3452 27.273 55.3704 23.6232 52.5047C18.787 48.7232 15.1958 43.3717 13.6067 37.4443Z" fill="#FAFCFA"/>
<path d="M57.456 37.8451C57.5963 37.8288 57.7419 37.7768 57.8855 37.812C58.7431 38.5078 59.3554 39.5119 59.4923 40.615C59.8335 42.7706 58.2828 44.9273 56.229 45.5383C54.8427 45.9875 53.2504 45.8025 52.0396 44.979C51.0904 44.3636 50.3874 43.374 50.1611 42.2631C49.8973 41.1491 50.1578 39.9381 50.7814 38.9867C50.8574 38.8227 51.0561 38.8436 51.2052 38.815C53.2966 38.5429 55.3779 38.2018 57.456 37.8451ZM28.5641 41.39C29.0167 39.9864 30.1235 38.7621 31.5472 38.3086C31.7425 38.913 32.2204 39.3985 32.8307 39.5889C34.1726 40.0437 35.6151 39.8611 37.0068 39.9018C37.691 40.9089 38.0477 42.1774 37.7905 43.3851C37.4285 45.5275 35.3957 47.2141 33.2248 47.2119C31.6454 47.289 30.0618 46.4996 29.1745 45.1939C28.4118 44.0982 28.2044 42.6704 28.5641 41.39ZM40.5186 39.808C42.8374 39.7034 45.1562 39.5372 47.4615 39.2576C48.2781 40.0843 48.8023 41.2205 48.755 42.3941C48.743 43.7746 47.9814 45.0902 46.858 45.8763C45.8008 46.6293 44.4224 46.9265 43.1497 46.6469C41.4998 46.3221 40.0948 45.0131 39.7052 43.3728C39.6026 42.6385 39.5927 41.8766 39.8145 41.1621C39.9801 40.6777 40.2427 40.236 40.5186 39.808Z" fill="white"/>
<path d="M26.1384 40.7306C26.3095 40.645 26.4827 40.5624 26.657 40.4785C26.2652 41.4255 26.1549 42.4571 26.2068 43.4719C25.5311 42.6913 24.9002 41.8731 24.3174 41.0213C24.9388 41.0466 25.5578 40.9596 26.1384 40.7306Z" fill="#FAFCFB"/>
<path d="M21.1753 44.368C22.0703 43.812 22.9113 43.1702 23.8129 42.623C24.0259 42.9346 24.2356 43.2484 24.4288 43.5731C23.6154 44.1016 22.8197 44.6542 22.0063 45.1805C21.6223 45.4139 21.1973 45.6572 20.7294 45.6002C19.8985 45.5726 19.234 44.7183 19.362 43.91C19.4536 43.4135 19.8079 42.9775 20.2692 42.7717C20.448 43.0546 20.6544 43.3188 20.8266 43.6062C20.6655 43.8429 20.3277 44.0597 20.4756 44.388C20.6534 44.6388 20.9657 44.4869 21.1753 44.368Z" fill="#FBFDFB"/>
<path d="M23.6729 45.305C24.0238 44.9778 24.4234 44.5849 24.9476 44.6445C25.7454 44.7522 26.3967 45.4536 26.5225 46.2363C26.5633 46.7153 26.2686 47.1378 25.91 47.4254C25.1164 48.1278 24.3825 48.8973 23.5614 49.5689C23.3563 49.3597 23.1488 49.1537 22.9445 48.9446C23.3219 48.4426 23.8318 48.054 24.2975 47.6368C24.068 47.3547 23.8241 47.0863 23.5758 46.823C23.0791 47.1996 22.6577 47.6632 22.1831 48.0648C21.9679 47.8732 21.7648 47.6696 21.5629 47.4648C21.5584 47.4254 21.5496 47.3437 21.5441 47.303C22.237 46.6194 22.9808 45.9884 23.6729 45.305Z" fill="#FCFDFB"/>
<path d="M42.8109 48.4105C45.3337 48.7342 47.9804 47.3459 49.1083 45.064C49.8312 46.0394 50.8741 46.7637 52.0329 47.1271C52.0297 47.1502 52.0209 47.1975 52.0165 47.2207C48.1194 49.6163 43.4069 50.6643 38.8633 50.0842C37.1427 49.8684 35.442 49.4436 33.8386 48.7807C35.7015 48.4097 37.3382 47.1381 38.2023 45.4559C39.1569 47.0942 40.9227 48.2203 42.8109 48.4105Z" fill="white"/>
<path d="M24.7081 45.7211C25.1286 45.6936 25.613 46.0857 25.4442 46.5336C25.2963 46.7088 25.1142 46.852 24.9409 47.0015C24.6837 46.7538 24.4343 46.4986 24.1992 46.2297C24.368 46.0594 24.5377 45.8898 24.7081 45.7211Z" fill="#020304"/>
<path d="M27.5875 46.6746C27.8478 46.8465 28.0951 47.0379 28.3468 47.2239C28.0157 47.9957 27.7023 48.7762 27.3436 49.5358C27.3314 49.6072 27.3048 49.7492 27.2916 49.8199C27.9958 49.2067 28.734 48.6352 29.4558 48.0428C29.6942 48.2398 29.9403 48.427 30.1919 48.6077C28.9383 49.6635 27.647 50.6751 26.3833 51.7209C26.1449 51.5404 25.9043 51.3642 25.6615 51.1903C26.2928 49.6801 26.9539 48.1839 27.5875 46.6746Z" fill="#FBFDFB"/>
<path d="M50.6235 49.9014C51.504 49.4102 52.3594 48.8762 53.2193 48.3513C53.3969 48.6265 53.5668 48.9073 53.7193 49.1988C53.44 49.3683 53.1475 49.516 52.8815 49.7055C52.9059 49.8497 52.9842 49.9752 53.0582 50.1007C53.6167 51.0266 54.1926 51.9436 54.7324 52.8827C54.7577 52.9003 54.8096 52.9356 54.8351 52.9534C54.5544 53.1163 54.2791 53.2885 54.0097 53.4695C53.2715 52.4349 52.6986 51.2921 51.9979 50.2319C51.6988 50.4056 51.4064 50.5908 51.0974 50.7471C50.9391 50.4639 50.7791 50.1831 50.6235 49.9014Z" fill="#FBFDF9"/>
<path d="M30.8552 49.4113C31.747 49.1493 32.8407 49.7127 33.0625 50.6333C33.152 51.1199 32.8562 51.5471 32.6519 51.9621C32.2335 52.8085 31.7889 53.6397 31.3585 54.4799C31.0693 54.3533 30.7901 54.2069 30.5142 54.0559C30.7913 53.4944 31.0793 52.9395 31.3596 52.3803C31.0329 52.2151 30.7195 52.0158 30.3686 51.9047C30.1092 52.4485 29.8047 52.9706 29.554 53.5197C29.2529 53.436 28.9746 53.292 28.6944 53.1597C28.7153 52.9065 28.828 52.6775 28.947 52.4584C29.329 51.7021 29.734 50.9579 30.1059 50.196C30.2571 49.8593 30.4845 49.5269 30.8552 49.4113Z" fill="#FBFDFA"/>
<path d="M31.1024 50.4793C31.1653 50.4549 31.2889 50.4078 31.3507 50.3835C31.6454 50.4452 32.078 50.5762 32.0725 50.9459C32.0009 51.1804 31.8684 51.3907 31.7536 51.6064C31.4269 51.4468 31.1002 51.2874 30.7812 51.1124C30.8837 50.8991 30.9908 50.688 31.1024 50.4793Z" fill="#020304"/>
<path d="M47.2419 51.0991C48.0212 50.8844 48.7938 50.2676 49.6292 50.5772C50.4325 50.8073 50.8895 51.8169 50.5065 52.5644C50.2638 53.0521 49.7792 53.3472 49.2805 53.5211C49.4879 54.0716 49.7152 54.6152 49.9007 55.1747C49.6315 55.2925 49.3577 55.3972 49.0917 55.5193C49.0254 55.5216 48.9593 55.5237 48.8942 55.527C48.4527 54.4051 48.0321 53.2756 47.5963 52.1515C47.4627 51.8059 47.2949 51.469 47.2419 51.0991Z" fill="#FCFEFC"/>
<path d="M34.5149 50.836C35.0391 50.6808 35.6217 50.7922 36.0755 51.0892C36.5633 51.4691 36.6581 52.167 36.4816 52.7296C36.1937 52.6558 35.9079 52.5755 35.6275 52.4808C35.5976 52.245 35.6484 51.9127 35.3881 51.7883C35.2301 51.6738 35.0305 51.7091 34.8506 51.6969C34.7954 51.8302 34.7413 51.9655 34.6882 52.101C35.1838 52.5403 35.8559 52.8408 36.1086 53.5002C36.3889 54.3491 35.7798 55.3432 34.9023 55.5105C34.7731 55.5074 34.6463 55.5061 34.5193 55.5061C34.0658 55.3929 33.558 55.2332 33.3129 54.7993C33.0514 54.379 33.1286 53.8604 33.1981 53.397C33.5216 53.4663 33.846 53.5389 34.1572 53.6557C34.1791 53.9673 34.1427 54.3052 34.3779 54.5518C34.4926 54.5518 34.721 54.5532 34.8348 54.5532C34.9839 54.346 35.1682 54.1128 35.1328 53.8431C34.7829 53.3697 34.1539 53.1825 33.8548 52.6627C33.5845 52.016 33.8495 51.1311 34.5149 50.836Z" fill="#FAFCF9"/>
<path d="M45.4397 51.3997C45.7895 51.3259 46.1394 51.2502 46.4937 51.2004C46.8147 52.7483 47.0863 54.3061 47.4153 55.8529C47.1274 55.9212 46.8382 55.9828 46.5456 56.0291C46.5103 56.0511 46.4385 56.0953 46.4033 56.1185C46.2597 55.7308 46.2068 55.3203 46.123 54.9193C45.8955 53.7458 45.6627 52.5744 45.4397 51.3997Z" fill="#FBFEFA"/>
<path d="M48.5773 51.7178C48.8633 51.6 49.1668 51.515 49.479 51.5813C49.6014 51.8004 49.6942 52.0591 49.5826 52.3044C49.3962 52.4861 49.1369 52.5578 48.8918 52.6228C48.7848 52.321 48.6701 52.0227 48.5773 51.7178Z" fill="#020204"/>
<path d="M37.7739 52.2374C38.2861 51.4392 39.5838 51.3291 40.2362 52.0194C40.435 52.211 40.5266 52.4774 40.6389 52.7231C40.6378 52.973 40.6367 53.224 40.6323 53.4761C40.3044 53.488 39.9767 53.4574 39.651 53.4244C39.6478 53.256 39.6434 53.0873 39.6443 52.9213C39.4291 52.6879 39.098 52.5523 38.7934 52.6923C38.523 52.8838 38.5704 53.246 38.5087 53.5323C38.4612 54.0002 38.3464 54.4615 38.3509 54.9359C38.3916 54.9965 38.4756 55.1176 38.5164 55.1782C38.7679 55.3257 39.0482 55.2926 39.3033 55.1704C39.3739 55.0031 39.4444 54.8369 39.514 54.6706C39.8375 54.7059 40.1597 54.7565 40.4841 54.792C40.483 55.2753 40.3208 55.8222 39.865 56.0655C39.1553 56.4486 38.1336 56.3892 37.6214 55.7077C37.2087 55.2554 37.3079 54.6024 37.4118 54.0531C37.5432 53.4506 37.5366 52.811 37.7739 52.2374Z" fill="#FCFEFD"/>
<path d="M41.4026 51.7871C42.0216 51.7001 42.6474 51.6561 43.2732 51.6561C43.5922 51.6451 43.8802 51.797 44.155 51.9423C44.6064 52.4941 44.6891 53.3066 44.3481 53.9341C44.2377 54.153 44.0369 54.3093 43.921 54.524C44.1826 55.1363 44.5821 55.6812 44.8867 56.2755C44.5324 56.281 44.1805 56.3143 43.8283 56.3373C43.4332 55.7462 43.1185 55.1033 42.6805 54.5427C42.6861 55.1726 42.7953 55.7955 42.8085 56.4263C42.4741 56.455 42.1419 56.5012 41.8064 56.5122C41.7645 56.1751 41.7536 55.8351 41.7137 55.4983C41.6474 54.6901 41.5735 53.8819 41.5006 53.0739C41.4513 52.6458 41.4313 52.2164 41.4026 51.7871Z" fill="#FDFEFC"/>
<path d="M42.5261 52.6469C42.8683 52.5437 43.2192 52.604 43.5139 52.8011C43.5535 52.933 43.5954 53.0675 43.6375 53.2007C43.5535 53.3581 43.4884 53.5473 43.3207 53.6378C43.0956 53.7038 42.8637 53.7413 42.6321 53.7787C42.5559 53.4054 42.5294 53.0268 42.5261 52.6469Z" fill="#010204"/>
</g>
<defs>
<clipPath id="clip0_10_243">
<rect width="71.405" height="60" fill="white"/>
</clipPath>
</defs>
</svg>
