<svg width="64" height="64" viewBox="0 0 64 64" fill="none" xmlns="http://www.w3.org/2000/svg">
<rect x="1.0625" y="1.0625" width="61.875" height="61.875" rx="12.9375" fill="white" stroke="#FFD86D" stroke-width="1.875"/>
<path d="M32.7125 29.375H25.625L24.35 23.975C24.3 23.775 24.2125 23.4375 24.0875 22.9625C23.9875 22.4625 23.8625 22.1 23.7125 21.875C23.5625 21.625 23.35 21.4625 23.075 21.3875C22.375 21.4125 21.35 21.425 20 21.425V29.375H13.25V8.18748C16.275 7.96248 19.1 7.84998 21.725 7.84998C24.1 7.84998 26.025 8.04998 27.5 8.44997C28.975 8.82497 30.075 9.48747 30.8 10.4375C31.55 11.3625 31.925 12.6375 31.925 14.2625C31.925 15.7875 31.575 16.9875 30.875 17.8625C30.175 18.7125 29.05 19.225 27.5 19.4V19.625C28.375 19.7 29.1 19.9875 29.675 20.4875C30.275 20.9625 30.675 21.575 30.875 22.325L32.7125 29.375ZM20 17.1875C20.225 17.2125 20.6625 17.225 21.3125 17.225C23.2375 17.225 24.3625 17.0625 24.6875 16.7375C24.9875 16.4375 25.1375 15.7375 25.1375 14.6375C25.1375 13.6125 24.8625 12.9125 24.3125 12.5375C23.7875 12.1625 22.9125 11.975 21.6875 11.975C21.4125 11.975 20.85 12 20 12.05V17.1875Z" fill="#455D7A"/>
<path d="M41.1529 13.775C41.1529 14.3 41.4154 14.7125 41.9404 15.0125C42.4904 15.3125 43.3404 15.6375 44.4904 15.9875C45.8654 16.4375 46.9904 16.875 47.8654 17.3C48.7654 17.725 49.5404 18.3875 50.1904 19.2875C50.8654 20.1875 51.2029 21.3625 51.2029 22.8125C51.2029 27.4625 48.1779 29.7875 42.1279 29.7875C41.1279 29.7875 39.9029 29.7 38.4529 29.525C37.0279 29.35 35.7279 29.125 34.5529 28.85C34.6029 28.325 34.7029 27.5625 34.8529 26.5625C35.0279 25.5375 35.1904 24.775 35.3404 24.275C36.2154 24.4 37.5279 24.55 39.2779 24.725C41.0529 24.9 42.3904 24.9875 43.2904 24.9875C43.8154 24.9875 44.1279 24.95 44.2279 24.875C44.3779 24.775 44.4904 24.6125 44.5654 24.3875C44.6654 24.1375 44.7154 23.925 44.7154 23.75C44.7154 23.25 44.4779 22.875 44.0029 22.625C43.5279 22.35 42.7154 22.025 41.5654 21.65C40.1904 21.225 39.0529 20.7875 38.1529 20.3375C37.2529 19.8875 36.4654 19.1875 35.7904 18.2375C35.1154 17.2875 34.7779 16.0375 34.7779 14.4875C34.7779 13.3875 35.0279 12.3125 35.5279 11.2625C36.0279 10.1875 36.5404 9.46247 37.0654 9.08748C37.4654 8.81247 38.2904 8.54997 39.5404 8.29997C40.7904 8.04997 41.9654 7.92497 43.0654 7.92497C45.8654 7.92497 48.1529 8.18747 49.9279 8.71248C49.9029 9.21248 49.8154 9.89997 49.6654 10.775C49.5404 11.65 49.4029 12.45 49.2529 13.175L48.3904 13.1375C45.1404 12.9125 43.0654 12.8 42.1654 12.8C41.7904 12.8 41.5779 12.8125 41.5279 12.8375C41.4279 12.8875 41.3404 13 41.2654 13.175C41.1904 13.35 41.1529 13.55 41.1529 13.775Z" fill="#455D7A"/>
<path d="M11.555 45.755C11.715 45.995 11.885 46.335 12.065 46.775C12.265 47.215 12.385 47.665 12.425 48.125L8.375 50.105C7.635 49.765 6.985 49.355 6.425 48.875C5.865 48.395 5.445 47.895 5.165 47.375L5.795 37.535L6.035 28.865L3.695 29.465C3.555 29.225 3.385 28.895 3.185 28.475C2.985 28.035 2.865 27.585 2.825 27.125L6.875 25.145C7.075 25.165 7.385 25.265 7.805 25.445C8.245 25.625 8.675 25.835 9.095 26.075C9.515 26.315 9.815 26.525 9.995 26.705L8.705 37.805L8.945 46.445L11.555 45.755Z" fill="#F95959"/>
<path d="M27.8991 45.755C28.0791 45.995 28.2591 46.335 28.4391 46.775C28.6191 47.215 28.7291 47.665 28.7691 48.125L24.7191 50.105C24.2391 49.965 23.7191 49.735 23.1591 49.415C22.6191 49.095 22.2091 48.805 21.9291 48.545L22.0491 46.355C21.0491 47.455 20.0391 48.335 19.0191 48.995C17.9991 49.655 17.1091 50.025 16.3491 50.105C16.0491 49.945 15.6791 49.665 15.2391 49.265C14.8191 48.845 14.4191 48.385 14.0391 47.885C13.6791 47.365 13.4391 46.875 13.3191 46.415L13.9491 38.135C14.2491 37.495 14.6791 36.855 15.2391 36.215C15.7991 35.555 16.3591 35.025 16.9191 34.625C18.3591 34.365 19.7591 34.215 21.1191 34.175C22.4791 34.115 23.9791 34.345 25.6191 34.865C25.8391 35.105 26.0391 35.395 26.2191 35.735C26.3991 36.075 26.5491 36.405 26.6691 36.725C26.8091 37.025 26.8891 37.255 26.9091 37.415C26.7091 38.295 26.4391 39.155 26.0991 39.995C25.7791 40.835 25.3891 41.635 24.9291 42.395L25.2891 46.415L27.8991 45.755ZM17.4591 46.445C18.1791 46.185 18.9691 45.625 19.8291 44.765C20.7091 43.905 21.5091 42.885 22.2291 41.705L22.3491 37.175C21.5291 37.155 20.7391 37.195 19.9791 37.295C19.2191 37.395 18.4991 37.545 17.8191 37.745C17.4591 38.745 17.1991 39.765 17.0391 40.805C16.8991 41.825 16.8291 42.775 16.8291 43.655C16.8491 44.515 16.9191 45.205 17.0391 45.725C17.1591 46.245 17.2991 46.485 17.4591 46.445Z" fill="#F95959"/>
<path d="M45.5968 45.755C45.7768 45.995 45.9568 46.335 46.1368 46.775C46.3168 47.215 46.4268 47.665 46.4668 48.125L42.4168 50.105C41.8968 49.845 41.3468 49.505 40.7668 49.085C40.1868 48.665 39.7268 48.205 39.3868 47.705C39.7468 46.445 39.9868 45.175 40.1068 43.895C40.2268 42.615 40.2568 41.425 40.1968 40.325C40.1568 39.205 40.0468 38.295 39.8668 37.595C39.3668 37.815 38.8268 38.205 38.2468 38.765C37.6868 39.305 37.1268 39.955 36.5668 40.715C36.0068 41.475 35.4868 42.295 35.0068 43.175L34.8268 49.625C34.3868 49.745 33.8768 49.805 33.2968 49.805C32.7168 49.805 32.1968 49.745 31.7368 49.625C31.1168 48.965 30.6068 48.215 30.2068 47.375C30.3868 46.475 30.6268 45.605 30.9268 44.765C31.2468 43.925 31.5968 43.135 31.9768 42.395L32.0068 41.945L31.6468 37.805L29.0368 38.465C28.8968 38.225 28.7268 37.895 28.5268 37.475C28.3268 37.035 28.2068 36.585 28.1668 36.125L32.2168 34.145C32.4168 34.165 32.6968 34.275 33.0568 34.475C33.4368 34.675 33.8068 34.895 34.1668 35.135C34.5468 35.355 34.8268 35.545 35.0068 35.705L34.8868 38.225C36.0068 36.945 37.1268 35.945 38.2468 35.225C39.3868 34.505 40.3268 34.145 41.0668 34.145C41.3668 34.305 41.6968 34.585 42.0568 34.985C42.4168 35.385 42.7468 35.835 43.0468 36.335C43.3468 36.815 43.5568 37.295 43.6768 37.775L43.1668 46.385L45.5968 45.755Z" fill="#F95959"/>
<path d="M60.9521 37.415C60.6121 38.875 60.1121 40.255 59.4521 41.555L60.1421 51.425C59.9421 51.865 59.6421 52.375 59.2421 52.955C58.8621 53.535 58.4321 54.095 57.9521 54.635C57.4921 55.175 57.0321 55.605 56.5721 55.925C55.7121 56.165 54.7721 56.325 53.7521 56.405C52.7321 56.505 51.7121 56.525 50.6921 56.465C49.6721 56.405 48.7321 56.295 47.8721 56.135C47.8521 55.815 47.8621 55.415 47.9021 54.935C47.9421 54.475 48.0021 54.015 48.0821 53.555C48.1821 53.095 48.3021 52.725 48.4421 52.445C49.0821 52.685 49.8121 52.865 50.6321 52.985C51.4721 53.125 52.3321 53.195 53.2121 53.195C54.0921 53.195 54.9021 53.145 55.6421 53.045C56.1021 51.985 56.4021 50.875 56.5421 49.715C56.6821 48.575 56.7621 47.195 56.7821 45.575C55.6821 46.895 54.5521 47.965 53.3921 48.785C52.2321 49.585 51.2321 50.025 50.3921 50.105C50.0921 49.945 49.7221 49.665 49.2821 49.265C48.8621 48.845 48.4621 48.385 48.0821 47.885C47.7221 47.365 47.4821 46.875 47.3621 46.415L47.9921 38.135C48.2921 37.495 48.7221 36.855 49.2821 36.215C49.8421 35.555 50.4021 35.025 50.9621 34.625C52.4021 34.365 53.8021 34.215 55.1621 34.175C56.5221 34.115 58.0221 34.345 59.6621 34.865C59.8821 35.105 60.0821 35.395 60.2621 35.735C60.4421 36.075 60.5921 36.405 60.7121 36.725C60.8521 37.025 60.9321 37.255 60.9521 37.415ZM51.5021 46.445C52.2621 46.165 53.1021 45.555 54.0221 44.615C54.9421 43.675 55.7721 42.565 56.5121 41.285L56.4821 37.175C55.6621 37.155 54.8621 37.195 54.0821 37.295C53.3021 37.395 52.5621 37.545 51.8621 37.745C51.5021 38.745 51.2421 39.765 51.0821 40.805C50.9421 41.825 50.8721 42.775 50.8721 43.655C50.8921 44.515 50.9621 45.205 51.0821 45.725C51.2021 46.245 51.3421 46.485 51.5021 46.445Z" fill="#F95959"/>
</svg>
